<?xml version="1.0" encoding="utf-8"?>
<!-- Generator: Adobe Illustrator 24.0.2, SVG Export Plug-In . SVG Version: 6.00 Build 0)  -->
<svg version="1.1" id="Layer_1" xmlns="http://www.w3.org/2000/svg" xmlns:xlink="http://www.w3.org/1999/xlink" x="0px" y="0px"
	 viewBox="0 0 36 36" style="enable-background:new 0 0 36 36;" xml:space="preserve">
<style type="text/css">
	.st0{fill:url(#SVGID_1_);}
</style>
<linearGradient id="SVGID_1_" gradientUnits="userSpaceOnUse" x1="18" y1="-1.818989e-12" x2="18" y2="35.5905">
	<stop  offset="0" style="stop-color:#75EC8E"/>
	<stop  offset="1" style="stop-color:#00B87E"/>
</linearGradient>
<path class="st0" d="M0,0v36h36V0H0z M31.9,13L17.5,27.8c-0.6,0.6-1.4,1-2.3,1c0,0,0,0,0,0c-0.9,0-1.7-0.4-2.3-1l-7.5-7.6
	C4.4,19.3,4,18.1,4.4,17C4.8,15.8,5.8,15,7,14.9c1.1-0.1,2.2,0.3,2.9,1.1l5.1,5.2L27.2,8.7c0.6-0.7,1.7-1.1,2.7-1
	c1.2,0.1,2.2,0.8,2.7,1.9C33.1,10.8,32.8,12.1,31.9,13z"/>
</svg>
